<?xml version="1.0" encoding="UTF-8"?>
<svg id="Layer_1" xmlns="http://www.w3.org/2000/svg" viewBox="0 0 841.89 595.28">
  <defs>
    <style>
      .cls-1 {
        fill: #d9bbb1;
      }
    </style>
  </defs>
  <g id="XEyaDj.tif">
    <g>
      <path class="cls-1" d="M394.49,270.51h12.78v34.26h12.21v-34.12h13v81.38h-12.91c0-1.08,0-2.05,0-3.02,0-9.65-.05-19.31.04-28.96.02-1.96-.57-2.67-2.55-2.55-2.32.15-4.67.19-6.99,0-2.31-.2-2.76.77-2.74,2.87.1,9.65-.02,19.31.09,28.96.03,2.25-.55,3.09-2.91,2.94-3.3-.21-6.62-.05-10.02-.05v-81.7Z"/>
      <path class="cls-1" d="M439.56,270.56h30.98v12.33h-17.73v32.11h14.68v12.66h-14.85c0,1.21,0,2.1,0,2.98,0,8.15,0,16.31,0,24.46,0,4.45.25,4.71,4.6,4.71,4.39,0,8.77,0,13.3,0v12.31c-.36.1-.74.31-1.11.31-7.24-.01-14.48.06-21.72-.13-4.32-.11-7.56-3.43-8.02-7.75-.11-1.07-.14-2.16-.14-3.24,0-29.21,0-58.42,0-87.62v-3.14Z"/>
      <path class="cls-1" d="M351.95,270.57h35.6v12.39c-2.58,0-5.2,0-7.83,0q-3.44,0-3.44,3.54c0,27.47,0,54.94,0,82.41v3.38h-13.03v-3.11c0-27.64,0-55.27,0-82.91q0-3.31-3.42-3.32c-2.57,0-5.14,0-7.89,0v-12.39Z"/>
      <path class="cls-1" d="M387.21,202.96c-.09-8.79,1.92-16.85,5.71-24.47.3-.61,1.44-1.13,2.19-1.14,10.74-.07,21.47-.07,32.21,0,.76,0,1.9.52,2.2,1.13,3.79,7.63,5.77,15.69,5.75,24.49h-48.05Z"/>
      <path class="cls-1" d="M387.28,207.83h48.17c-.79,4.18-1.27,8.21-2.38,12.07-1.16,4.06-2.94,7.93-4.43,11.89-.5,1.31-1.32,1.9-2.82,1.89-9.73-.06-19.47,0-29.21-.08-.83,0-2.07-.53-2.41-1.19-4.01-7.58-6.29-15.68-6.92-24.59Z"/>
      <path class="cls-1" d="M389.03,233.63c-6.1,0-12.08.03-18.05-.04-.55,0-1.29-.47-1.61-.94-4.93-7.44-7.48-15.64-7.91-24.95,2.37,0,4.5,0,6.63,0,4.16,0,8.32,0,12.48,0,1.14,0,2.14,0,2.26,1.58.64,8.21,2.97,15.99,6.25,23.5.06.13-.01.32-.05.86Z"/>
      <path class="cls-1" d="M433.01,233.63c.87-2.14,1.74-3.76,2.18-5.5,1.53-6.02,2.87-12.09,4.39-18.12.21-.85,1-2.2,1.55-2.21,6.47-.16,12.94-.1,19.75-.1-.07,1.58-.04,2.96-.22,4.31-.94,7.09-3.15,13.76-7.05,19.79-.49.75-1.41,1.73-2.15,1.74-5.97.14-11.95.08-18.46.08Z"/>
      <path class="cls-1" d="M388.39,177.32c-3.57,8.07-5.51,15.99-5.86,24.31-.02.53-.75,1.47-1.16,1.47-6.53.09-13.07.07-20.15.07.6-3.63.72-7.01,1.77-10.07,1.67-4.83,3.91-9.47,6.04-14.13.32-.7,1.29-1.56,1.98-1.58,5.63-.13,11.26-.07,17.37-.07Z"/>
      <path class="cls-1" d="M460.93,203.18c-6.8,0-13.26.03-19.71-.06-.46,0-1.28-.85-1.3-1.33-.35-8.38-2.31-16.37-5.86-24.49h6.75c1.83,0,3.71.28,5.47-.05,5.24-1,7.79,1.7,9.73,6.11,2.73,6.22,4.66,12.56,4.92,19.83Z"/>
      <path class="cls-1" d="M432.53,360.05v12.27h-38.1v-12.27h38.1Z"/>
      <path class="cls-1" d="M426.24,172.53h-30.2c1.9-2.49,3.32-4.72,5.11-6.59,2.69-2.81,5.6-5.43,8.53-7.98.56-.49,2.02-.76,2.52-.39,5.46,3.99,10.12,8.77,14.04,14.97Z"/>
      <path class="cls-1" d="M397.28,238.23h27.8c-3.82,6.21-8.43,11.21-13.83,15.83-5.44-4.47-9.95-9.58-13.96-15.83Z"/>
      <path class="cls-1" d="M374.25,238.1c5.39,0,10.78-.04,16.17.05.7.01,1.61.46,2.04,1,4,4.96,7.92,9.99,11.85,15.01.09.11.07.31.17.81-12.3-1.77-22.36-7.23-30.53-16.23.09-.21.19-.42.28-.63Z"/>
      <path class="cls-1" d="M417.54,254.73c1.1-1.17,2.13-2.11,2.98-3.19,3.01-3.85,6.02-7.71,8.88-11.66.86-1.19,1.63-1.84,3.18-1.81,5.21.09,10.43.04,15.7.04-2.71,6.81-21.02,16.76-30.74,16.64Z"/>
      <path class="cls-1" d="M447.87,172.68c-4.97,0-9.95.03-14.92-.04-.56,0-1.29-.38-1.65-.83-4.1-5.17-8.14-10.39-12.13-15.5,11.27,1.73,20.94,7.13,28.93,15.66-.08.24-.16.47-.24.71Z"/>
      <path class="cls-1" d="M403.26,156.28c-4.01,5.15-8.05,10.37-12.14,15.55-.32.4-.93.8-1.4.81-5.05.06-10.1.04-15.26-.27,7.75-8.96,17.5-14.21,28.8-16.08Z"/>
      <path class="cls-1" d="M418.44,402.92v-22.36c1.68,0,3.33-.17,4.92.04,2.08.28,3.24,1.79,3.29,3.8.12,4.82.16,9.64,0,14.46-.09,2.69-1.69,3.97-4.41,4.06-1.22.04-2.45,0-3.81,0ZM421.16,383.27c0,5.28-.04,10.4.05,15.51.01.74.35,1.1,1.09,1.1,1.11,0,1.57-.44,1.61-1.25.17-4.34.1-8.69.08-13.04,0-1.66-.68-2.65-2.82-2.32Z"/>
      <path class="cls-1" d="M442.34,402.71h-2.72v-9.75h-2.79v9.68c-1.03.07-1.81.12-2.97.19,0-1.91,0-3.62,0-5.33,0-4.16-.07-8.31.03-12.47.07-3.02,1.74-4.76,4.3-4.77,2.62-.01,4.1,1.62,4.13,4.81.06,5.8.02,11.6.02,17.63ZM436.74,389.94c2.16.78,2.94.12,2.83-1.81-.07-1.15,0-2.36-.09-3.46-.05-.59-.26-1.47-1.21-1.6-1.17.03-1.4,1.01-1.47,1.59-.2,1.7-.07,3.44-.07,5.28Z"/>
      <path class="cls-1" d="M387.42,402.59h-2.74v-9.53c-2-.66-3.02-.34-2.94,1.86.09,2.47.02,4.95.02,7.61-.92.07-1.61.12-2.3.17-.15-.38-.31-.6-.31-.83-.03-5.81-.08-11.62-.03-17.43.02-2.58,1.62-4.22,3.9-4.3,2.25-.08,4.29,1.51,4.35,3.88.14,6.12.05,12.25.05,18.59ZM384.65,390.2c0-2.02.12-3.75-.06-5.45-.07-.67-.8-1.27-1.23-1.9-.52.65-1.4,1.25-1.49,1.95-.22,1.69-.07,3.42-.07,5.26.99.05,1.71.08,2.85.14Z"/>
      <path class="cls-1" d="M374.38,392.01c2.98,2.41,3.39,4.08,2.65,10.47-.32.06-.7.19-1.08.21-.41.02-.82-.05-1.58-.11,0-2.23.02-4.45,0-6.66-.02-1.6-.61-2.58-2.78-2v8.63h-2.63v-22.31c2.82.24,5.92-1.14,7.73,2.04,1.64,2.89.47,7.46-2.3,9.73ZM371.78,382.83v7.94c2.4.13,2.52-1.25,2.56-2.88.05-1.95.69-4.55-2.56-5.06Z"/>
      <path class="cls-1" d="M450.86,392.27c2.98,2.41,3.39,4.08,2.65,10.47-.32.06-.7.19-1.08.21-.41.02-.82-.05-1.58-.11,0-2.23.02-4.45,0-6.66-.02-1.6-.61-2.58-2.78-2v8.63h-2.63v-22.31c2.82.24,5.92-1.14,7.73,2.04,1.64,2.89.47,7.46-2.3,9.73ZM448.26,383.09v7.94c2.4.13,2.52-1.25,2.56-2.88.05-1.95.69-4.55-2.56-5.06Z"/>
      <path class="cls-1" d="M395.03,380.52c-.37,4.37-1.06,10.69-1.58,15.67-.62-5.68-1.15-10.57-1.72-15.74-1.1.03-1.87,0-2.79.02.99,7.53,1.96,14.88,2.93,22.22h3.13l2.88-22.34-2.86.18Z"/>
      <path class="cls-1" d="M405.21,402.78q-5.93.37-5.93-5.6c0-5.48,0-10.96,0-16.66h6.49c-.13.94-.05,2.01-.62,2.3-.8.41-1.9.23-2.9.31v7.01c1.01.1,1.89.18,2.93.28v2.27c-1,.1-1.88.18-3.07.3,0,1.99-.06,4.81-.11,6.75-.01.56,2.5.43,3.24.47l-.03,2.57Z"/>
      <path class="cls-1" d="M410.46,400.16c0-6.5.04-13.25.04-19.73h-2.79c0,5.58,0,11.05,0,16.52q0,6.27,6.21,5.78v-2.6l-3.46.03Z"/>
      <path class="cls-1" d="M432.29,380.52c-1.09,0-1.73,0-2.75.04,0,7.1-.22,15.16-.14,22.1h2.62l.27-22.14Z"/>
      <path class="cls-1" d="M459.42,388.72l-1.46-7.98h-2.31c-.44,0-.76.4-.65.81l2.95,11.42v9.85h3.02v-9.85l2.88-11.42c.1-.41-.22-.81-.65-.81h-2.09l-1.68,7.98Z"/>
      <polygon class="cls-1" points="358.22 380.48 358.22 383.76 361 383.76 361 402.33 363.95 402.33 363.95 383.81 366.65 383.81 366.65 380.48 358.22 380.48"/>
    </g>
  </g>
</svg>